<svg width="260" height="250" viewBox="0 0 260 250" fill="none" xmlns="http://www.w3.org/2000/svg">
<path d="M118.412 250C60.7271 249.017 21.368 216.562 5.07456 164.895C-4.27373 135.252 -0.219539 106.489 13.2428 79.301C26.8391 51.8417 47.1198 29.9171 74.732 15.8732C86.2655 10.0079 98.629 5.72473 110.772 1.14166C115.507 -0.64473 120.536 -0.205618 125.518 1.56451C131.846 3.77449 138.532 4.77763 145.229 4.52187C159.991 4.02356 173.179 8.75039 185.402 16.2772C193.639 21.3481 202.532 25.4498 209.909 31.8713C232.832 51.8278 248.77 76.3315 257.724 105.383C261.122 116.315 259.931 127.489 258.873 138.541C258.262 144.911 255.772 151.206 254.774 157.315C253.993 162.064 250.117 165.512 250.423 168.68C250.884 173.468 248.926 176.495 246.997 179.833C228.856 211.231 200.436 229.042 166.95 240.116C155.091 244.038 143.066 247.324 130.71 249.177C125.939 249.893 121.048 249.84 118.412 250ZM47.0885 96.1819C47.6012 95.8404 48.2771 95.6472 48.4111 95.2634C53.4547 80.8734 63.5414 70.3906 74.5304 60.367C79.9878 55.3897 83.6067 48.695 88.3869 41.4362C73.1375 46.3459 47.7553 80.9098 47.0885 96.1819ZM211.791 150.029L181.755 188.663C200.962 172.338 210.28 160.153 211.791 150.031V150.029ZM43.1248 46.515C53.9296 37.2773 66.4259 30.1584 76.253 19.6971C63.7808 26.8465 51.9754 34.8306 43.1248 46.515ZM183.6 145.554C179.195 151.095 172.883 155.454 172.139 163.332C177.276 158.27 181.971 152.928 183.6 145.554V145.554ZM79.7789 95.3518C84.5064 88.2297 90.3392 81.8329 92.8359 73.5151C85.9304 79.3062 83.0869 87.518 79.7789 95.3518ZM218.511 208.899L219.592 209.792C224.418 206.323 228.51 201.935 231.634 196.88C229.316 198.579 227.464 200.733 225.433 202.703C223.21 204.857 220.826 206.839 218.511 208.899ZM37.3265 51.9451C34.7497 53.8466 32.9431 55.5575 31.9107 57.9899C31.6284 58.6548 31.2387 59.4146 32.0291 59.8876C32.5162 60.0146 33.0296 59.9976 33.5072 59.8388C33.5774 56.7734 38.53 56.4202 37.3265 51.9451Z" fill="black"/>
<path d="M190 166H70V176H190V166Z" fill="url(#paint0_linear_991_332)"/>
<path d="M133.822 146.224C138.914 144.114 141.332 138.276 139.223 133.184C137.113 128.092 131.275 125.674 126.183 127.783C121.091 129.892 118.673 135.73 120.782 140.822C122.891 145.915 128.729 148.333 133.822 146.224Z" fill="url(#paint1_linear_991_332)"/>
<path d="M130 118C126.242 118 122.569 119.114 119.444 121.202C116.32 123.29 113.884 126.257 112.446 129.729C111.008 133.201 110.632 137.021 111.365 140.707C112.098 144.392 113.908 147.778 116.565 150.435C119.222 153.092 122.608 154.902 126.293 155.635C129.979 156.368 133.799 155.992 137.271 154.554C140.743 153.116 143.71 150.68 145.798 147.556C147.886 144.431 149 140.758 149 137C149 131.961 146.998 127.128 143.435 123.565C139.872 120.002 135.039 118 130 118V118ZM130 149C127.627 149 125.307 148.296 123.333 146.978C121.36 145.659 119.822 143.785 118.913 141.592C118.005 139.399 117.768 136.987 118.231 134.659C118.694 132.331 119.836 130.193 121.515 128.515C123.193 126.836 125.331 125.694 127.659 125.231C129.987 124.768 132.399 125.005 134.592 125.913C136.785 126.822 138.659 128.36 139.978 130.333C141.296 132.307 142 134.627 142 137C142 140.183 140.736 143.235 138.485 145.485C136.235 147.736 133.183 149 130 149Z" fill="url(#paint2_linear_991_332)"/>
<path d="M159.41 126.07C157.547 125.469 155.922 124.292 154.77 122.709C153.618 121.126 152.999 119.218 153 117.26C153 115.069 152.13 112.968 150.581 111.419C149.032 109.87 146.931 109 144.74 109H115.26C113.069 109 110.968 109.87 109.419 111.419C107.87 112.968 107 115.069 107 117.26C107.001 119.218 106.382 121.126 105.23 122.709C104.078 124.292 102.453 125.469 100.59 126.07C92.573 128.665 85.5844 133.734 80.6275 140.549C75.6707 147.363 73.0004 155.573 73 164H187C187 155.573 184.329 147.363 179.372 140.549C174.416 133.734 167.427 128.665 159.41 126.07V126.07ZM130 158C125.847 158 121.786 156.768 118.333 154.461C114.88 152.153 112.188 148.874 110.599 145.036C109.009 141.199 108.593 136.977 109.404 132.903C110.214 128.83 112.214 125.088 115.151 122.151C118.088 119.214 121.83 117.214 125.903 116.404C129.977 115.593 134.199 116.009 138.036 117.599C141.874 119.188 145.153 121.88 147.461 125.333C149.768 128.786 151 132.847 151 137C151 142.57 148.788 147.911 144.849 151.849C140.911 155.788 135.57 158 130 158V158Z" fill="url(#paint3_linear_991_332)"/>
<path d="M143 107V101C145.82 100.436 148.358 98.912 150.181 96.6877C152.004 94.4634 153 91.6761 153 88.8V87C153 86.4696 152.789 85.9609 152.414 85.5858C152.039 85.2107 151.53 85 151 85H148C147.47 85 146.961 85.2107 146.586 85.5858C146.211 85.9609 146 86.4696 146 87C146 88.3261 145.473 89.5979 144.536 90.5355C143.598 91.4732 142.326 92 141 92H119C117.674 92 116.402 91.4732 115.464 90.5355C114.527 89.5979 114 88.3261 114 87C114 86.4696 113.789 85.9609 113.414 85.5858C113.039 85.2107 112.53 85 112 85H109C108.47 85 107.961 85.2107 107.586 85.5858C107.211 85.9609 107 86.4696 107 87V88.8C107.002 91.6755 107.998 94.4619 109.821 96.6858C111.644 98.9098 114.181 100.434 117 101V107H143Z" fill="url(#paint4_linear_991_332)"/>
<path d="M100.3 101L102 105C83.0002 124 72.0002 124 72.0002 124C70.9183 122.386 69.9941 120.671 69.2402 118.88C81.0002 117.43 95.6702 105.15 100.3 101Z" fill="url(#paint5_linear_991_332)"/>
<path d="M159.7 101C164.33 105.13 178.98 117.41 190.76 118.86C190.007 120.658 189.083 122.379 188 124C188 124 177 124 158 105L159.7 101Z" fill="url(#paint6_linear_991_332)"/>
<path d="M191.5 117C191.427 116.97 191.349 116.949 191.27 116.94C177.86 115.42 161.14 99.3001 160.52 99.1101L161 98.0001C161 98.0001 163.69 92.6201 154.63 92.0501C154.969 90.3895 155.093 88.6923 155 87.0001C155 85.9392 154.579 84.9218 153.829 84.1717C153.079 83.4215 152.061 83.0001 151 83.0001H148C146.94 83.0001 145.922 83.4215 145.172 84.1717C144.422 84.9218 144 85.9392 144 87.0001C144 87.7957 143.684 88.5588 143.122 89.1214C142.559 89.684 141.796 90.0001 141 90.0001H119C118.205 90.0001 117.442 89.684 116.879 89.1214C116.316 88.5588 116 87.7957 116 87.0001C116 85.9392 115.579 84.9218 114.829 84.1717C114.079 83.4215 113.061 83.0001 112 83.0001H109C107.94 83.0001 106.922 83.4215 106.172 84.1717C105.422 84.9218 105 85.9392 105 87.0001C104.908 88.6923 105.032 90.3895 105.37 92.0501C96.3104 92.6201 99.0004 98.0001 99.0004 98.0001C99.6204 99.4401 99.5204 99.0001 99.1904 99.2801C79.8504 116.66 69.0004 116.76 68.5004 117C66.0998 109.892 66.6006 102.124 69.8942 95.3837C73.1877 88.6431 79.0079 83.4743 86.0904 81.0001C113.02 71.7501 146.95 71.7401 173.91 81.0001C180.995 83.4721 186.816 88.6406 190.11 95.382C193.404 102.123 193.904 109.892 191.5 117V117Z" fill="url(#paint7_linear_991_332)"/>
<defs>
<linearGradient id="paint0_linear_991_332" x1="130" y1="166" x2="130" y2="176" gradientUnits="userSpaceOnUse">
<stop stop-color="#FFC837"/>
<stop offset="1" stop-color="#FF8008"/>
</linearGradient>
<linearGradient id="paint1_linear_991_332" x1="126.183" y1="127.783" x2="133.822" y2="146.224" gradientUnits="userSpaceOnUse">
<stop stop-color="#FFC837"/>
<stop offset="1" stop-color="#FF8008"/>
</linearGradient>
<linearGradient id="paint2_linear_991_332" x1="130" y1="118" x2="130" y2="156" gradientUnits="userSpaceOnUse">
<stop stop-color="#FFC837"/>
<stop offset="1" stop-color="#FF8008"/>
</linearGradient>
<linearGradient id="paint3_linear_991_332" x1="130" y1="109" x2="130" y2="164" gradientUnits="userSpaceOnUse">
<stop stop-color="#FFC837"/>
<stop offset="1" stop-color="#FF8008"/>
</linearGradient>
<linearGradient id="paint4_linear_991_332" x1="130" y1="85" x2="130" y2="107" gradientUnits="userSpaceOnUse">
<stop stop-color="#FFC837"/>
<stop offset="1" stop-color="#FF8008"/>
</linearGradient>
<linearGradient id="paint5_linear_991_332" x1="85.6202" y1="101" x2="85.6202" y2="124" gradientUnits="userSpaceOnUse">
<stop stop-color="#FFC837"/>
<stop offset="1" stop-color="#FF8008"/>
</linearGradient>
<linearGradient id="paint6_linear_991_332" x1="174.38" y1="101" x2="174.38" y2="124" gradientUnits="userSpaceOnUse">
<stop stop-color="#FFC837"/>
<stop offset="1" stop-color="#FF8008"/>
</linearGradient>
<linearGradient id="paint7_linear_991_332" x1="130.002" y1="74.0588" x2="130.002" y2="117" gradientUnits="userSpaceOnUse">
<stop stop-color="#FFC837"/>
<stop offset="1" stop-color="#FF8008"/>
</linearGradient>
</defs>
</svg>
