<svg width="260" height="250" viewBox="0 0 260 250" fill="none" xmlns="http://www.w3.org/2000/svg">
<path d="M118.412 250C60.7271 249.017 21.368 216.562 5.07456 164.895C-4.27373 135.252 -0.219539 106.489 13.2428 79.301C26.8391 51.8417 47.1198 29.9171 74.732 15.8732C86.2655 10.0079 98.629 5.72473 110.772 1.14166C115.507 -0.64473 120.536 -0.205618 125.518 1.56451C131.846 3.77449 138.532 4.77763 145.229 4.52187C159.991 4.02356 173.179 8.75039 185.402 16.2772C193.639 21.3481 202.532 25.4498 209.909 31.8713C232.832 51.8278 248.77 76.3315 257.724 105.383C261.122 116.315 259.931 127.489 258.872 138.541C258.262 144.911 255.772 151.206 254.774 157.315C253.993 162.064 250.117 165.512 250.423 168.68C250.884 173.468 248.926 176.495 246.997 179.833C228.856 211.231 200.436 229.042 166.95 240.116C155.091 244.038 143.066 247.324 130.71 249.177C125.939 249.893 121.048 249.84 118.412 250ZM47.0885 96.1819C47.6012 95.8404 48.2771 95.6472 48.4111 95.2634C53.4547 80.8734 63.5414 70.3905 74.5303 60.367C79.9877 55.3897 83.6067 48.695 88.3869 41.4362C73.1375 46.3459 47.7553 80.9098 47.0885 96.1819ZM211.791 150.029L181.755 188.663C200.962 172.338 210.28 160.153 211.791 150.031V150.029ZM43.1248 46.515C53.9296 37.2773 66.4259 30.1584 76.253 19.6971C63.7808 26.8465 51.9754 34.8306 43.1248 46.515ZM183.6 145.554C179.195 151.095 172.883 155.454 172.139 163.332C177.276 158.27 181.971 152.928 183.6 145.554ZM79.7789 95.3518C84.5064 88.2297 90.3392 81.8329 92.8359 73.5151C85.9304 79.3062 83.0869 87.518 79.7789 95.3518ZM218.511 208.899L219.592 209.792C224.418 206.323 228.51 201.935 231.634 196.88C229.316 198.579 227.464 200.733 225.433 202.703C223.21 204.857 220.826 206.839 218.511 208.899ZM37.3265 51.9451C34.7497 53.8466 32.9431 55.5575 31.9107 57.9899C31.6284 58.6548 31.2387 59.4146 32.0291 59.8876C32.5162 60.0146 33.0296 59.9976 33.5072 59.8388C33.5774 56.7734 38.53 56.4202 37.3265 51.9451Z" fill="black"/>
<path d="M117 134V135H103C101.143 135 99.363 135.738 98.0503 137.05C96.7375 138.363 96 140.143 96 142V162C96 163.857 96.7375 165.637 98.0503 166.95C99.363 168.263 101.143 169 103 169H117V170C117 170.265 117.105 170.52 117.293 170.707C117.48 170.895 117.735 171 118 171C118.265 171 118.52 170.895 118.707 170.707C118.895 170.52 119 170.265 119 170V134C119 133.735 118.895 133.48 118.707 133.293C118.52 133.105 118.265 133 118 133C117.735 133 117.48 133.105 117.293 133.293C117.105 133.48 117 133.735 117 134Z" fill="url(#paint0_linear_991_248)"/>
<path d="M86 159.5L94 162V142L86 144.5V159.5Z" fill="url(#paint1_linear_991_248)"/>
<path d="M84 147H67V157H84V147Z" fill="url(#paint2_linear_991_248)"/>
<path d="M158 135H143V134C143 133.735 142.895 133.48 142.707 133.293C142.52 133.105 142.265 133 142 133C141.735 133 141.48 133.105 141.293 133.293C141.105 133.48 141 133.735 141 134V170C141 170.265 141.105 170.52 141.293 170.707C141.48 170.895 141.735 171 142 171C142.265 171 142.52 170.895 142.707 170.707C142.895 170.52 143 170.265 143 170V169H158C159.591 169 161.117 168.368 162.243 167.243C163.368 166.117 164 164.591 164 163V141C164 139.409 163.368 137.883 162.243 136.757C161.117 135.632 159.591 135 158 135Z" fill="url(#paint3_linear_991_248)"/>
<path d="M166 162L174 159.5V144.5L166 142V162Z" fill="url(#paint4_linear_991_248)"/>
<path d="M193 147H176V157H193V147Z" fill="url(#paint5_linear_991_248)"/>
<path d="M130 125C134.549 125 138.996 123.651 142.778 121.124C146.56 118.597 149.508 115.004 151.249 110.802C152.99 106.599 153.446 101.974 152.558 97.5129C151.671 93.0514 149.48 88.9532 146.263 85.7366C143.047 82.5199 138.949 80.3294 134.487 79.4419C130.026 78.5545 125.401 79.01 121.198 80.7508C116.996 82.4916 113.403 85.4396 110.876 89.2219C108.349 93.0042 107 97.451 107 102C107 108.1 109.423 113.95 113.737 118.263C118.05 122.577 123.9 125 130 125ZM119.28 92.72C119.089 92.5291 118.982 92.2701 118.982 92C118.982 91.73 119.089 91.471 119.28 91.28C119.471 91.0891 119.73 90.9818 120 90.9818C120.27 90.9818 120.529 91.0891 120.72 91.28L130 100.56L139.28 91.28C139.471 91.0891 139.73 90.9818 140 90.9818C140.27 90.9818 140.529 91.0891 140.72 91.28C140.911 91.471 141.018 91.73 141.018 92C141.018 92.2701 140.911 92.5291 140.72 92.72L131.44 102L140.72 111.28C140.865 111.42 140.965 111.6 141.006 111.798C141.047 111.995 141.027 112.2 140.949 112.386C140.871 112.572 140.739 112.731 140.569 112.84C140.4 112.95 140.202 113.005 140 113C139.4 113 140.06 113.48 130 103.42C120 113.49 120.6 113 120 113C119.794 113.01 119.59 112.956 119.416 112.846C119.242 112.736 119.106 112.574 119.027 112.384C118.948 112.193 118.93 111.983 118.976 111.782C119.021 111.581 119.127 111.398 119.28 111.26L128.56 102L119.28 92.72Z" fill="url(#paint6_linear_991_248)"/>
<path d="M133 138H121V144C133.76 144 133.91 144.31 135.1 143.12C135.518 142.702 135.803 142.169 135.919 141.589C136.035 141.01 135.977 140.409 135.753 139.861C135.529 139.314 135.148 138.846 134.658 138.515C134.168 138.184 133.591 138.004 133 138Z" fill="url(#paint7_linear_991_248)"/>
<path d="M133 160H121V166C133.76 166 133.91 166.31 135.1 165.12C135.518 164.702 135.803 164.169 135.919 163.589C136.035 163.01 135.977 162.409 135.753 161.861C135.529 161.314 135.148 160.846 134.658 160.515C134.168 160.184 133.591 160.004 133 160Z" fill="url(#paint8_linear_991_248)"/>
<defs>
<linearGradient id="paint0_linear_991_248" x1="107.5" y1="133" x2="107.5" y2="171" gradientUnits="userSpaceOnUse">
<stop stop-color="#FFC837"/>
<stop offset="1" stop-color="#FF8008"/>
</linearGradient>
<linearGradient id="paint1_linear_991_248" x1="90" y1="142" x2="90" y2="162" gradientUnits="userSpaceOnUse">
<stop stop-color="#FFC837"/>
<stop offset="1" stop-color="#FF8008"/>
</linearGradient>
<linearGradient id="paint2_linear_991_248" x1="75.5" y1="147" x2="75.5" y2="157" gradientUnits="userSpaceOnUse">
<stop stop-color="#FFC837"/>
<stop offset="1" stop-color="#FF8008"/>
</linearGradient>
<linearGradient id="paint3_linear_991_248" x1="152.5" y1="133" x2="152.5" y2="171" gradientUnits="userSpaceOnUse">
<stop stop-color="#FFC837"/>
<stop offset="1" stop-color="#FF8008"/>
</linearGradient>
<linearGradient id="paint4_linear_991_248" x1="170" y1="142" x2="170" y2="162" gradientUnits="userSpaceOnUse">
<stop stop-color="#FFC837"/>
<stop offset="1" stop-color="#FF8008"/>
</linearGradient>
<linearGradient id="paint5_linear_991_248" x1="184.5" y1="147" x2="184.5" y2="157" gradientUnits="userSpaceOnUse">
<stop stop-color="#FFC837"/>
<stop offset="1" stop-color="#FF8008"/>
</linearGradient>
<linearGradient id="paint6_linear_991_248" x1="130" y1="79" x2="130" y2="125" gradientUnits="userSpaceOnUse">
<stop stop-color="#FFC837"/>
<stop offset="1" stop-color="#FF8008"/>
</linearGradient>
<linearGradient id="paint7_linear_991_248" x1="128.489" y1="138" x2="128.489" y2="144.036" gradientUnits="userSpaceOnUse">
<stop stop-color="#FFC837"/>
<stop offset="1" stop-color="#FF8008"/>
</linearGradient>
<linearGradient id="paint8_linear_991_248" x1="128.489" y1="160" x2="128.489" y2="166.036" gradientUnits="userSpaceOnUse">
<stop stop-color="#FFC837"/>
<stop offset="1" stop-color="#FF8008"/>
</linearGradient>
</defs>
</svg>
